# xmcd
#
# Track frame offsets: 
#        150
#        13359
#        25651
#        37146
#        51755
#        62573
#        74698
#        87469
#        100417
#        111557
#        122183
#        132597
#        143772
#        156753
#
# Disc length: 2327 seconds
#
# Revision: 0
# Processed by: cddbd v1.5.2PL0 Copyright (c) Steve Scherf et al.
# Submitted via: ExactAudioCopy v1.3
#
DISCID=d609150e
DTITLE=Eric 'Two Scoops' Moore - Good Cookin' Man
DYEAR=2019
DGENRE=Blues
TTITLE0=Ten Piece Band
TTITLE1=Good Cookin' Man
TTITLE2=Diggin'
TTITLE3=Fresh Like Rain
TTITLE4=Cold
TTITLE5=Don't Let It Happen Again
TTITLE6=Unlawfully Yours
TTITLE7=Hate Song
TTITLE8=Happy Hour
TTITLE9=Something in Her Genes
TTITLE10=Gravy Train
TTITLE11=Lasagna Man
TTITLE12=Don't Dance with Drunk Women
TTITLE13=Nine Dependable Drinkers
EXTD=
EXTT0=
EXTT1=
EXTT2=
EXTT3=
EXTT4=
EXTT5=
EXTT6=
EXTT7=
EXTT8=
EXTT9=
EXTT10=
EXTT11=
EXTT12=
EXTT13=
PLAYORDER=
